
  <svg
    width="318"
    height="85"
    viewBox="0 0 318 85"
    fill="none"
    xmlns="http://www.w3.org/2000/svg"
  >
    <g clip-path="url(#clip0_196_367)">
      <path
        d="M65.1351 26.4635H48.4316L66.7859 53.9614L75.1376 41.4491L65.1351 26.4635Z"
        fill="#29388E"
      />
      <path
        d="M86.8515 26.4635L75.9957 42.7328L67.6439 55.2451L53.4632 76.4939H7.47042V62.2606C6.99944 63.0271 6.51913 63.8029 6.05748 64.607C4.11294 67.9925 3.31087 71.9987 0.30313 74.6883C0.200541 74.7776 0.097951 74.8575 -0.00463867 74.9375V78.544C-0.00463867 81.5675 2.4342 84.0267 5.43261 84.0267H65.1258L70.1527 76.4939L75.9817 67.7574L84.3334 55.2451L103.541 26.4635H86.8375H86.8515Z"
        fill="#E91C24"
      />
      <path
        d="M156.309 12.075L145.5 0V8.21928H5.43725C2.43884 8.21928 0 10.6785 0 13.7019V45.2625C0.135232 45.1355 0.275127 45.0133 0.419685 44.8957C-0.125905 43.4522 0.228495 41.6795 1.31035 40.5604C3.0637 38.7501 4.37871 36.7188 6.60304 35.4069C6.88283 35.2423 7.17661 35.1247 7.47039 35.0401V15.7521H145.5V24.1453L156.309 12.0703V12.075Z"
        fill="#E91C24"
      />
      <path
        d="M312.558 8.21928H172.09V0L161.28 12.075L172.09 24.15V15.7568H310.525V76.4986H98.5234L84.3427 55.2498L75.991 67.7621L81.8199 76.4986L86.8468 84.0314H312.558C315.556 84.0314 317.995 81.5722 317.995 78.5487V13.7066C317.995 10.6832 315.556 8.22399 312.558 8.22399V8.21928Z"
        fill="#29388E"
      />
      <path
        d="M203.692 60.5114H222.503V70.9689H191.269V27.3945H222.153V37.7908H203.692V43.8283H220.418V54.0977H203.692V60.5114Z"
        fill="#29388E"
      />
      <path
        d="M245.679 71.9046C240.545 71.9046 236.287 70.9313 232.907 68.9799C229.53 67.0285 227.166 64.3954 225.828 61.0757L236.446 55.5366C238.251 59.397 241.445 61.3249 246.024 61.3249C249.815 61.3249 251.713 60.3563 251.713 58.4237C251.713 57.1494 250.617 56.1197 248.43 55.3391C247.507 54.9958 245.478 54.4175 242.34 53.604C237.901 52.4426 234.38 50.8157 231.792 48.7185C229.199 46.6214 227.908 43.7061 227.908 39.9726C227.908 35.9476 229.516 32.6891 232.729 30.2016C235.947 27.7142 239.957 26.4682 244.77 26.4682C248.841 26.4682 252.45 27.3192 255.598 29.0214C258.745 30.7236 261.151 33.1922 262.816 36.4272L252.403 41.9052C250.878 38.6701 248.356 37.0479 244.84 37.0479C243.357 37.0479 242.238 37.3206 241.473 37.8614C240.708 38.4021 240.326 39.0933 240.326 39.9256C240.326 40.8848 240.89 41.6983 242.023 42.366C243.156 43.0337 245.357 43.8048 248.64 44.6794C250.953 45.4271 252.837 46.0336 254.297 46.5085C255.756 46.9835 257.346 47.7264 259.058 48.7373C260.769 49.753 262.047 51.0555 262.877 52.6495C263.711 54.2435 264.126 56.1149 264.126 58.2685C264.126 62.5427 262.438 65.8859 259.062 68.2887C255.686 70.6962 251.219 71.8999 245.665 71.8999L245.679 71.9046Z"
        fill="#29388E"
      />
      <path
        d="M285.171 71.9046C280.037 71.9046 275.78 70.9313 272.399 68.9799C269.023 67.0285 266.659 64.3954 265.32 61.0757L275.938 55.5366C277.743 59.397 280.937 61.3249 285.517 61.3249C289.308 61.3249 291.206 60.3563 291.206 58.4237C291.206 57.1494 290.11 56.1197 287.923 55.3391C286.999 54.9958 284.971 54.4175 281.833 53.604C277.393 52.4426 273.873 50.8157 271.285 48.7185C268.692 46.6214 267.4 43.7061 267.4 39.9726C267.4 35.9476 269.009 32.6891 272.222 30.2016C275.439 27.7142 279.45 26.4682 284.262 26.4682C288.333 26.4682 291.942 27.3192 295.09 29.0214C298.238 30.7236 300.644 33.1922 302.309 36.4272L291.896 41.9052C290.371 38.6701 287.848 37.0479 284.332 37.0479C282.849 37.0479 281.73 37.3206 280.965 37.8614C280.201 38.4021 279.818 39.0933 279.818 39.9256C279.818 40.8848 280.382 41.6983 281.516 42.366C282.649 43.0337 284.85 43.8048 288.133 44.6794C290.445 45.4271 292.329 46.0336 293.789 46.5085C295.249 46.9835 296.839 47.7264 298.55 48.7373C300.261 49.753 301.539 51.0555 302.369 52.6495C303.204 54.2435 303.619 56.1149 303.619 58.2685C303.619 62.5427 301.931 65.8859 298.555 68.2887C295.179 70.6962 290.711 71.8999 285.157 71.8999L285.171 71.9046Z"
        fill="#29388E"
      />
      <path
        d="M20.5553 34.5793C39.2546 34.4617 44.9343 34.5793 44.9343 34.5793V26.4588H20.5553C-1.64136 26.4635 0.0280522 48.0132 0.0280522 48.0132C0.0280522 48.0132 1.31509 34.7015 20.5553 34.5793Z"
        fill="#29388E"
      />
      <path
        d="M20.5553 50.2655C39.2546 50.1433 38.9468 50.2655 38.9468 50.2655V42.145C38.9468 42.145 39.2546 42.145 20.5553 42.145C-1.64136 42.145 0.0280523 63.6948 0.0280523 63.6948C0.0280523 63.6948 1.31509 50.3831 20.5553 50.2655Z"
        fill="#29388E"
      />
      <path
        d="M20.5553 65.9424C39.2546 65.8248 44.9343 65.9424 44.9343 65.9424V57.8265H20.5553C-1.64136 57.8265 0.0280522 79.3763 0.0280522 79.3763C0.0280522 79.3763 1.31509 66.0646 20.5553 65.9471V65.9424Z"
        fill="#29388E"
      />
      <path
        d="M176.902 54.8454C179.448 53.5617 181.458 51.8266 182.941 49.6496C184.419 47.4725 185.16 45.0744 185.16 42.46C185.16 38.1012 183.482 34.5041 180.129 31.6593C176.776 28.8192 172.621 27.3945 167.669 27.3945H148.233V70.9689H160.655V56.9002H165.099L173.568 70.9689H186.895L176.902 54.8454ZM169.879 50.2279L164.437 46.2405L158.995 50.2279L161.075 43.7766L155.633 39.7892H162.357L164.437 33.3379L166.517 39.7892H173.241L167.799 43.7766L169.879 50.2279Z"
        fill="#29388E"
      />
      <path
        d="M138.379 31.6922C135.05 28.8286 130.928 27.3992 126.027 27.3992H107.15V70.9736H119.573V57.9018H126.027C130.932 57.9018 135.05 56.4723 138.379 53.6087C141.709 50.7451 143.378 47.0963 143.378 42.6528C143.378 38.2093 141.714 34.5605 138.379 31.6969V31.6922ZM128.484 50.2279L123.042 46.2405L117.6 50.2279L119.68 43.7766L114.238 39.7892H120.962L123.042 33.3379L125.122 39.7892H131.846L126.404 43.7766L128.484 50.2279Z"
        fill="#29388E"
      />
      <path
        d="M289.306 89.3779V80.6506H290.363V88.4404H294.419V89.3779H289.306ZM289.306 104.378V95.6506H290.363V103.44H294.419V104.378H289.306ZM296.329 113.378H295.272C295.209 113.074 295.1 112.807 294.944 112.577C294.79 112.347 294.603 112.153 294.381 111.997C294.162 111.838 293.919 111.719 293.652 111.639C293.385 111.56 293.107 111.52 292.817 111.52C292.289 111.52 291.81 111.653 291.381 111.92C290.955 112.188 290.616 112.581 290.363 113.101C290.113 113.621 289.988 114.259 289.988 115.014C289.988 115.77 290.113 116.408 290.363 116.928C290.616 117.447 290.955 117.841 291.381 118.108C291.81 118.375 292.289 118.509 292.817 118.509C293.107 118.509 293.385 118.469 293.652 118.389C293.919 118.31 294.162 118.192 294.381 118.036C294.603 117.876 294.79 117.682 294.944 117.452C295.1 117.219 295.209 116.952 295.272 116.651H296.329C296.249 117.097 296.104 117.496 295.894 117.848C295.684 118.2 295.422 118.5 295.11 118.747C294.797 118.992 294.446 119.178 294.057 119.305C293.671 119.433 293.258 119.497 292.817 119.497C292.073 119.497 291.411 119.315 290.831 118.952C290.252 118.588 289.796 118.071 289.464 117.401C289.131 116.73 288.965 115.935 288.965 115.014C288.965 114.094 289.131 113.298 289.464 112.628C289.796 111.957 290.252 111.44 290.831 111.077C291.411 110.713 292.073 110.531 292.817 110.531C293.258 110.531 293.671 110.595 294.057 110.723C294.446 110.851 294.797 111.038 295.11 111.286C295.422 111.53 295.684 111.828 295.894 112.18C296.104 112.53 296.249 112.929 296.329 113.378Z"
        fill="#29388E"
      />
    </g>
    <defs>
      <clipPath id="clip0_196_367">
        <rect width="318" height="85" fill="white" />
      </clipPath>
    </defs>
  </svg>

